<svg xmlns="http://www.w3.org/2000/svg" width="256" height="256" viewBox="0 0 256 256">
  <defs>
    <linearGradient id="g" x1="0" x2="1" y1="0" y2="1">
      <stop offset="0%" stop-color="#3C949E"/>
      <stop offset="100%" stop-color="#182D34"/>
    </linearGradient>
  </defs>
  <rect width="256" height="256" rx="48" fill="url(#g)"/>
  <g fill="#FFFFFF">
    <path d="M120 56h16a8 8 0 0 1 8 8v32h32a8 8 0 0 1 8 8v16a8 8 0 0 1-8 8h-32v32a8 8 0 0 1-8 8h-16a8 8 0 0 1-8-8v-32H80a8 8 0 0 1-8-8v-16a8 8 0 0 1 8-8h32V64a8 8 0 0 1 8-8z"/>
  </g>
</svg>

